<svg width="14" height="15" viewBox="0 0 14 15" fill="none" xmlns="http://www.w3.org/2000/svg">
<path d="M11.8578 6.25586C12.5687 6.25586 13.1703 6.85742 13.1703 7.56836V12.8184C13.1703 13.5566 12.5687 14.1309 11.8578 14.1309H2.23281C1.49453 14.1309 0.920312 13.5566 0.920312 12.8184V7.56836C0.920312 6.85742 1.49453 6.25586 2.23281 6.25586H2.88906V4.28711C2.88906 2.01758 4.74844 0.130859 7.04531 0.130859C9.31484 0.130859 11.2016 2.01758 11.2016 4.28711V6.25586H11.8578ZM9.01406 6.25586V4.28711C9.01406 3.2207 8.11172 2.31836 7.04531 2.31836C5.95156 2.31836 5.07656 3.2207 5.07656 4.28711V6.25586H9.01406Z" fill="black"/>
</svg>
