<svg width="52" height="52" viewBox="0 0 52 52" fill="none" xmlns="http://www.w3.org/2000/svg">
<path fill-rule="evenodd" clip-rule="evenodd" d="M35.75 24.375H27.625V16.25C27.625 15.3563 26.8986 14.625 26 14.625C25.1014 14.625 24.375 15.3563 24.375 16.25V24.375H16.25C15.3514 24.375 14.625 25.1063 14.625 26C14.625 26.8937 15.3514 27.625 16.25 27.625H24.375V35.75C24.375 36.6438 25.1014 37.375 26 37.375C26.8986 37.375 27.625 36.6438 27.625 35.75V27.625H35.75C36.6486 27.625 37.375 26.8937 37.375 26C37.375 25.1063 36.6486 24.375 35.75 24.375ZM26 52C11.6399 52 0 40.365 0 26C0 11.635 11.6399 0 26 0C40.3601 0 52 11.635 52 26C52 40.365 40.3601 52 26 52Z" fill="#592214"/>
</svg>
